<svg width="172" height="49" viewBox="0 0 172 49" fill="none" xmlns="http://www.w3.org/2000/svg">
<path fill-rule="evenodd" clip-rule="evenodd" d="M3.89419 14.528V34.4162L13.4245 40.0249V44.5142L0.00911989 36.6483H0V12.0633L17.2594 2.27541L17.2001 2.24121L21.051 0L25.7819 2.82717V2.97308V10.6087L30.506 13.3834H30.5585V13.4176L35.3145 16.2106V20.709L30.5585 17.916V35.2529L26.6711 37.7176V15.6315L21.8969 12.8317H21.8877V5.02278L21.0875 4.53943L3.89419 14.528ZM41.3792 11.9265H41.3884V36.6414L21.2334 48.3445V48.3537L15.554 45.0454V22.7063L12.7268 29.2384L10.0045 22.9388V35.0113L6.11033 32.8225V15.7432C7.60143 14.9156 9.24757 14.1586 10.4195 13.5727L12.9708 20.9233L15.5563 10.6087L19.4482 8.17826V42.8179L21.2311 43.853L37.4919 34.4162V14.1495L27.9616 8.54078V4.04923L41.3792 11.9265Z" fill="white"/>
<path d="M52.7553 21.095V1.42338H58.9933L62.6891 14.841L66.3348 1.42338H72.6002V21.0973H68.7402L68.7311 5.61169L64.6727 21.0973H60.6668L56.6244 5.60941L56.6062 21.095H52.7553ZM95.3247 21.095H90.8263L89.0502 16.6148H80.7853L79.0799 21.095H74.6681L82.664 1.4211H87.0666L95.3247 21.095ZM87.6982 13.2884L84.8368 6.01525L82.0529 13.2884H87.6982ZM96.4441 14.7179L100.502 14.3303C100.744 15.6322 101.234 16.5784 101.975 17.1826C102.725 17.7936 103.724 18.0968 104.983 18.0968C106.319 18.0968 107.326 17.8301 107.999 17.2874C108.672 16.7448 109.016 16.1155 109.016 15.3928C109.016 14.9277 108.87 14.5309 108.585 14.2026C108.309 13.8743 107.81 13.5916 107.094 13.359C106.611 13.1949 105.509 12.9099 103.786 12.4972C101.563 11.9637 100.012 11.3162 99.114 10.541C97.8463 9.45573 97.2193 8.1379 97.2193 6.56928C97.2193 5.57065 97.5203 4.6313 98.1062 3.75123C98.7013 2.88028 99.554 2.21681 100.673 1.76082C101.793 1.2957 103.129 1.07227 104.716 1.07227C107.292 1.07227 109.23 1.6149 110.532 2.70929C111.834 3.80367 112.513 5.26058 112.584 7.08683L108.414 7.22363C108.234 6.20676 107.853 5.47489 107.276 5.03486C106.699 4.5857 105.819 4.36227 104.666 4.36227C103.469 4.36227 102.529 4.60394 101.848 5.07818C101.417 5.38825 101.193 5.79409 101.193 6.30936C101.193 6.77448 101.401 7.17119 101.813 7.49951C102.331 7.93042 103.606 8.37046 105.623 8.82645C107.639 9.27561 109.13 9.75668 110.097 10.24C111.07 10.7302 111.82 11.3937 112.372 12.2396C112.915 13.0832 113.191 14.1342 113.191 15.3768C113.191 16.4963 112.862 17.5565 112.208 18.5391C111.554 19.5218 110.623 20.2537 109.424 20.737C108.227 21.2113 106.736 21.4529 104.944 21.4529C102.342 21.4529 100.343 20.8852 98.9453 19.7293C97.5476 18.5802 96.72 16.9158 96.4441 14.7179ZM121.357 21.095V4.74758H115.256V1.42338H131.594V4.74986H125.527V21.0973H121.357V21.095ZM134.292 21.095V1.42338H149.536V4.74986H138.462V9.11829H148.76V12.4448H138.462V17.7708H149.939V21.0973H134.292V21.095ZM153.482 21.095V1.42338H162.237C164.435 1.42338 166.038 1.6035 167.037 1.9569C168.035 2.31029 168.838 2.93956 169.433 3.83559C170.037 4.74074 170.338 5.77357 170.338 6.93864C170.338 8.42062 169.882 9.63584 168.977 10.5934C168.072 11.5579 166.72 12.1621 164.919 12.4106C165.815 12.9099 166.556 13.4616 167.132 14.0658C167.718 14.6609 168.503 15.7279 169.494 17.2532L172.002 21.0973H167.03L164.048 16.795C162.978 15.2697 162.246 14.3121 161.85 13.9176C161.453 13.5232 161.04 13.245 160.6 13.0991C160.151 12.9532 159.453 12.8848 158.498 12.8848H157.655V21.0973H153.482V21.095ZM157.652 9.74756H160.728C162.718 9.74756 163.959 9.67004 164.46 9.50589C164.962 9.34173 165.347 9.06585 165.623 8.66914C165.908 8.28154 166.045 7.78223 166.045 7.19627C166.045 6.5328 165.865 5.99929 165.493 5.58433C165.122 5.1785 164.597 4.92086 163.925 4.81826C163.589 4.77494 162.579 4.74986 160.892 4.74986H157.652V9.74756ZM59.3991 47.9987V30.6435H52.6094V28.3339H68.9226V30.6435H62.1328V47.9987H59.3991ZM67.3448 47.9987L75.2472 28.3339H78.2363L86.6197 47.9987H83.5258L81.1387 42.0365H72.4702L70.229 47.9987H67.3448ZM73.2728 39.9253H80.2882L78.1428 34.4716C77.4976 32.8163 77.0051 31.4461 76.6608 30.3699C76.3849 31.6535 76.0065 32.9121 75.5322 34.1524L73.2728 39.9253ZM87.9558 38.4251C87.9558 35.167 88.8701 32.618 90.7054 30.7735C92.5408 28.9199 94.9097 28.0079 97.8144 28.0079C99.7182 28.0079 101.433 28.4388 102.958 29.3097C104.483 30.1716 105.646 31.3777 106.449 32.928C107.249 34.4784 107.655 36.2363 107.655 38.2016C107.655 40.192 107.233 41.975 106.387 43.5436C105.544 45.1213 104.353 46.3092 102.81 47.1209C101.259 47.9303 99.5859 48.327 97.803 48.327C95.8559 48.327 94.1322 47.8778 92.5978 46.9909C91.0725 46.0949 89.9189 44.8797 89.1254 43.3293C88.3434 41.7857 87.9558 40.1578 87.9558 38.4251ZM90.7738 38.4775C90.7738 40.8396 91.4373 42.7091 92.7734 44.0612C94.1003 45.4223 95.7715 46.104 97.7893 46.104C99.8413 46.104 101.522 45.4223 102.855 44.0452C104.173 42.6749 104.837 40.7187 104.837 38.1948C104.837 36.6011 104.552 35.2057 103.984 34.0156C103.423 32.8255 102.596 31.8952 101.501 31.2409C100.407 30.5865 99.1915 30.2582 97.8304 30.2582C95.8992 30.2582 94.2462 30.8875 92.8577 32.1529C91.4647 33.4182 90.7738 35.5204 90.7738 38.4775Z" fill="white"/>
<rect x="114.227" y="27.8164" width="57.6833" height="20.5198" fill="#89C249"/>
<path d="M123.09 43.0771C121.598 43.0771 120.354 42.6019 119.36 41.6517C118.365 40.6915 117.867 39.4591 117.867 37.9545C117.867 36.45 118.365 35.2225 119.36 34.2723C120.354 33.3121 121.598 32.832 123.09 32.832C124.822 32.832 126.155 33.5744 127.09 35.0592L125.598 35.8165C125.349 35.3908 124.996 35.0444 124.538 34.7771C124.09 34.5098 123.608 34.3762 123.09 34.3762C122.106 34.3762 121.285 34.7128 120.628 35.3859C119.981 36.059 119.658 36.9152 119.658 37.9545C119.658 38.9939 119.981 39.8501 120.628 40.5232C121.285 41.1963 122.106 41.5329 123.09 41.5329C123.618 41.5329 124.105 41.3993 124.553 41.132C125.001 40.8647 125.349 40.5183 125.598 40.0926L127.09 40.8499C126.135 42.3347 124.802 43.0771 123.09 43.0771Z" fill="white"/>
<path d="M137.369 42.8989H135.384L134.653 40.9984H130.086L129.355 42.8989H127.37L131.28 32.9954H133.459L137.369 42.8989ZM134.16 39.469L132.369 34.7474L130.579 39.469H134.16Z" fill="white"/>
<path d="M146.157 42.8989H144.142L141.933 39.2018H140.202V42.8989H138.456V32.9954H142.829C143.804 32.9954 144.59 33.2824 145.187 33.8565C145.784 34.4307 146.082 35.178 146.082 36.0986C146.082 36.93 145.853 37.5982 145.396 38.103C144.938 38.598 144.381 38.8999 143.724 39.0087L146.157 42.8989ZM142.59 37.6724C143.087 37.6724 143.495 37.5289 143.814 37.2418C144.132 36.9548 144.291 36.5737 144.291 36.0986C144.291 35.6234 144.132 35.2423 143.814 34.9553C143.495 34.6682 143.087 34.5247 142.59 34.5247H140.202V37.6724H142.59Z" fill="white"/>
<path d="M152.603 43.0919C151.13 43.0919 149.892 42.6168 148.887 41.6665C147.882 40.7163 147.379 39.4789 147.379 37.9545C147.379 36.4302 147.882 35.1978 148.887 34.2574C149.892 33.3072 151.13 32.832 152.603 32.832C154.314 32.832 155.652 33.52 156.617 34.8959L155.184 35.6977C154.906 35.3116 154.538 34.9949 154.08 34.7474C153.632 34.4999 153.14 34.3762 152.603 34.3762C151.618 34.3762 150.797 34.7128 150.14 35.3859C149.494 36.059 149.17 36.9152 149.17 37.9545C149.17 38.9939 149.494 39.8551 150.14 40.5381C150.797 41.2112 151.618 41.5477 152.603 41.5477C153.07 41.5477 153.513 41.4586 153.931 41.2805C154.359 41.1023 154.702 40.8944 154.961 40.6569V39.1127H151.991V37.5834H156.707V41.2953C155.622 42.493 154.254 43.0919 152.603 43.0919Z" fill="white"/>
<path d="M166.822 41.6368C165.867 42.597 164.648 43.0771 163.166 43.0771C161.683 43.0771 160.464 42.597 159.509 41.6368C158.554 40.6668 158.077 39.4393 158.077 37.9545C158.077 36.4698 158.554 35.2473 159.509 34.2871C160.464 33.3171 161.683 32.832 163.166 32.832C164.648 32.832 165.867 33.3171 166.822 34.2871C167.777 35.2473 168.255 36.4698 168.255 37.9545C168.255 39.4393 167.777 40.6668 166.822 41.6368ZM163.166 41.5329C164.151 41.5329 164.947 41.1963 165.553 40.5232C166.16 39.8402 166.464 38.984 166.464 37.9545C166.464 36.9152 166.16 36.059 165.553 35.3859C164.947 34.7128 164.151 34.3762 163.166 34.3762C162.171 34.3762 161.37 34.7128 160.763 35.3859C160.166 36.059 159.867 36.9152 159.867 37.9545C159.867 38.9939 160.166 39.8501 160.763 40.5232C161.37 41.1963 162.171 41.5329 163.166 41.5329Z" fill="white"/>
</svg>
